<?xml version="1.0" encoding="UTF-8" standalone="no"?>
<!-- Generator: Adobe Illustrator 19.0.0, SVG Export Plug-In . SVG Version: 6.00 Build 0)  -->

<svg
   xmlns:dc="http://purl.org/dc/elements/1.1/"
   xmlns:cc="http://creativecommons.org/ns#"
   xmlns:rdf="http://www.w3.org/1999/02/22-rdf-syntax-ns#"
   xmlns:svg="http://www.w3.org/2000/svg"
   xmlns="http://www.w3.org/2000/svg"
   xmlns:sodipodi="http://sodipodi.sourceforge.net/DTD/sodipodi-0.dtd"
   xmlns:inkscape="http://www.inkscape.org/namespaces/inkscape"
   version="1.1"
   id="Layer_1"
   x="0px"
   y="0px"
   viewBox="0 0 512 512"
   style="enable-background:new 0 0 512 512;"
   xml:space="preserve"
   sodipodi:docname="giftbox.svg"
   inkscape:version="0.92.3 (2405546, 2018-03-11)"><metadata
   id="metadata288"><rdf:RDF><cc:Work
       rdf:about=""><dc:format>image/svg+xml</dc:format><dc:type
         rdf:resource="http://purl.org/dc/dcmitype/StillImage" /></cc:Work></rdf:RDF></metadata><defs
   id="defs286" /><sodipodi:namedview
   pagecolor="#ffffff"
   bordercolor="#666666"
   borderopacity="1"
   objecttolerance="10"
   gridtolerance="10"
   guidetolerance="10"
   inkscape:pageopacity="0"
   inkscape:pageshadow="2"
   inkscape:window-width="640"
   inkscape:window-height="480"
   id="namedview284"
   showgrid="false"
   inkscape:zoom="0.4609375"
   inkscape:cx="256"
   inkscape:cy="256"
   inkscape:window-x="0"
   inkscape:window-y="0"
   inkscape:window-maximized="0"
   inkscape:current-layer="Layer_1" />
<g
   id="g239"
   style="fill:#ffffff">
	<g
   id="g237"
   style="fill:#ffffff">
		<path
   d="M478.609,99.726H441.34c4.916-7.78,8.16-16.513,9.085-25.749C453.38,44.46,437.835,18,411.37,6.269    c-24.326-10.783-51.663-6.375-71.348,11.479l-47.06,42.65c-9.165-10.024-22.34-16.324-36.962-16.324    c-14.648,0-27.844,6.32-37.011,16.375l-47.12-42.706C152.152-0.111,124.826-4.502,100.511,6.275    C74.053,18.007,58.505,44.476,61.469,73.992c0.927,9.229,4.169,17.958,9.084,25.734H33.391C14.949,99.726,0,114.676,0,133.117    v50.087c0,9.22,7.475,16.696,16.696,16.696h478.609c9.22,0,16.696-7.475,16.696-16.696v-50.087    C512,114.676,497.051,99.726,478.609,99.726z M205.913,94.161v5.565H127.37c-20.752,0-37.084-19.346-31.901-40.952    c2.283-9.515,9.151-17.626,18.034-21.732c12.198-5.638,25.71-3.828,35.955,5.445l56.469,51.182    C205.924,93.834,205.913,93.996,205.913,94.161z M417.294,69.544c-1.244,17.353-16.919,30.184-34.316,30.184h-76.891v-5.565    c0-0.197-0.012-0.392-0.014-0.589c12.792-11.596,40.543-36.748,55.594-50.391c8.554-7.753,20.523-11.372,31.587-8.072    C409.131,39.847,418.455,53.349,417.294,69.544z"
   id="path235"
   style="fill:#ffffff" />
	</g>
</g>
<g
   id="g245"
   style="fill:#ffffff">
	<g
   id="g243"
   style="fill:#ffffff">
		<path
   d="M33.391,233.291v244.87c0,18.442,14.949,33.391,33.391,33.391h155.826V233.291H33.391z"
   id="path241"
   style="fill:#ffffff" />
	</g>
</g>
<g
   id="g251"
   style="fill:#ffffff">
	<g
   id="g249"
   style="fill:#ffffff">
		<path
   d="M289.391,233.291v278.261h155.826c18.442,0,33.391-14.949,33.391-33.391v-244.87H289.391z"
   id="path247"
   style="fill:#ffffff" />
	</g>
</g>
<g
   id="g253">
</g>
<g
   id="g255">
</g>
<g
   id="g257">
</g>
<g
   id="g259">
</g>
<g
   id="g261">
</g>
<g
   id="g263">
</g>
<g
   id="g265">
</g>
<g
   id="g267">
</g>
<g
   id="g269">
</g>
<g
   id="g271">
</g>
<g
   id="g273">
</g>
<g
   id="g275">
</g>
<g
   id="g277">
</g>
<g
   id="g279">
</g>
<g
   id="g281">
</g>
</svg>